<svg xmlns="http://www.w3.org/2000/svg" width="286" height="90" version="1.2"><defs><linearGradient id="g1" x2="1" gradientTransform="matrix(-159.3 66.1 -50.37 -121.4 182.5 58.3)" gradientUnits="userSpaceOnUse"><stop offset="0" stop-color="#f6f078"/><stop offset=".2" stop-color="#e68b34"/><stop offset=".5" stop-color="#892a76"/><stop offset=".7" stop-color="#415694"/><stop offset="1" stop-color="#0d71b0"/></linearGradient></defs><style>.s1{fill:#0d1e3e}</style><g id="Layer 1"><path id="&lt;Compound Path&gt;" d="M105.1 61V32.6a3 3 0 0 1 3-2.9h28.1l-3.9-4.1q-.6-.3-1-.9-2-1.9-4.2-3.7v2.1c0 1.6-1.3 2.9-2.9 2.9H95.8a2.9 2.9 0 0 1-2.9-2.9v-21c-1.3 1.8-2.5 3.8-3.7 5.7v15.5c0 1.6-1.3 2.9-2.9 2.9H57.9a2.9 2.9 0 0 1-2.9-2.9v-5.6a22.4 22.4 0 0 1-3.6 3.3v2.3a3 3 0 0 1-3 2.9H24.6l1.9 3.2c.9 1.2 1.8 2.4 2.9 3.4 0-1.6 1.3-2.9 2.9-2.9h22.5l.6-.1.5.1h4.8c1.6 0 2.9 1.3 2.9 2.9v28.4c0 1.6-1.3 2.9-2.9 2.9H42.6q1.7 1.5 3.2 3.2l1.4 1.5c.5-.6 1.3-1 2.2-1h28.3a3 3 0 0 1 3 3v16.4q1.7-4.1 3.6-8v-8.6c0-1.6 1.3-2.9 2.9-2.9h28.4c1.6 0 2.9 1.3 2.9 2.9v.1q3.1-3.3 6-6.7h-16.4a3 3 0 0 1-3-3zm-3.6.2c0 1.6-1.3 2.9-2.9 2.9H70.2a3 3 0 0 1-3-2.9V32.8a3 3 0 0 1 3-2.9h28.4c1.6 0 2.9 1.3 2.9 2.9z" style="opacity:.5;fill:url(#g1)"/><path d="M8.4 34.7v6.2l5.9-6.2h4.1l-5.9 5.9 6.5 9.2h-4.2L10.3 43l-1.9 1.9v4.9H5V34.7zM52.8 34.7v2.8h-8v3.2h7.3v2.6h-7.3V47h8.1v2.8H41.5V34.7zM74.7 34.7h3.7l3.5 5.9 3.6-5.9h3.7L83.6 44v5.8h-3.4v-5.9zM118.7 34.7q1.1 0 2 .2.8.2 1.5.6.6.4 1 1.2.3.7.3 1.7 0 1.2-.5 1.9-.5.8-1.5 1.3 1.4.4 2 1.4.7 1 .7 2.4 0 1.2-.4 2-.5.8-1.2 1.4-.8.5-1.7.7-1 .3-2 .3h-7.3V34.7zm-.4 6.1q.8 0 1.4-.4.6-.4.6-1.4 0-.5-.2-.9l-.5-.5-.7-.3h-4v3.5zm.2 6.4.9-.1.8-.3q.3-.2.5-.6.2-.4.2-1 0-1.1-.6-1.6-.7-.5-1.8-.5h-3.6v4.1zM147.5 39.2q.5-1.5 1.4-2.6 1-1 2.4-1.7 1.4-.6 3.1-.6 1.7 0 3.1.6 1.4.7 2.3 1.7 1 1.1 1.5 2.6.5 1.4.5 3.1 0 1.6-.5 3.1-.5 1.4-1.5 2.5-.9 1-2.3 1.6-1.4.6-3.1.6-1.7 0-3.1-.6-1.4-.6-2.4-1.6-.9-1.1-1.4-2.5-.5-1.5-.5-3.1 0-1.7.5-3.1zm3 5q.2.8.7 1.6.5.7 1.3 1.1.8.5 1.9.5 1.1 0 1.9-.5.8-.4 1.3-1.1.5-.8.7-1.6.2-.9.2-1.9 0-1-.2-1.9-.2-1-.7-1.7-.5-.7-1.3-1.1-.8-.5-1.9-.5-1.1 0-1.9.5-.8.4-1.3 1.1-.5.7-.7 1.7-.2.9-.2 1.9 0 1 .2 1.9zM192.8 34.7l5.6 15.1H195l-1.2-3.4h-5.6l-1.2 3.4h-3.4l5.8-15.1zm.1 9.2-1.9-5.5-2 5.5zM229 34.7q1 0 1.8.3.9.3 1.4.9.6.6.9 1.3.3.8.3 1.7 0 1.3-.5 2.3-.6.9-1.9 1.4v.1q.7.1 1.1.5.4.3.6.8.3.5.4 1.1l.1 1.1.1.9.1 1 .1.9q.1.5.4.8h-3.3q-.3-.7-.4-1.7 0-1-.2-1.9-.1-1.2-.7-1.8-.5-.5-1.8-.5h-3.3v5.9h-3.3V34.7zm-1.2 6.8q1.1 0 1.7-.5.6-.5.6-1.6t-.6-1.6q-.6-.5-1.7-.5h-3.6v4.2zM263.8 34.7q1.5 0 2.7.5 1.3.4 2.2 1.3.9 1 1.4 2.4.6 1.4.6 3.3 0 1.6-.5 3-.4 1.4-1.2 2.4-.9 1-2.2 1.6-1.3.6-3 .6h-6.5V34.7zm-.2 12.3 1.4-.2 1.2-.8q.5-.5.8-1.4.3-.9.3-2.1 0-1.2-.2-2.1-.2-.9-.7-1.6-.5-.6-1.4-1-.8-.3-2-.3h-2.4V47zM225.9 22v1.5h-1.5V22zM231.6 16.3v1.1h.1q.7-1.3 2.3-1.3.7 0 1.2.2t.8.6q.3.3.4.8l.1 1.1v4.7h-1.2v-4.9q0-.6-.4-1t-1.1-.4l-.9.1-.7.5-.4.7-.1.9v4.1h-1.2v-7.2zM245.9 23.1q-.8.6-2 .6-.9 0-1.5-.3t-1.1-.8q-.4-.5-.6-1.2l-.3-1.5q0-.8.3-1.5.2-.7.7-1.2.4-.5 1.1-.8.6-.3 1.3-.3 1 0 1.6.4.7.4 1.1 1l.5 1.4.1 1.4h-5.4l.1.9q.1.4.4.7.3.4.7.6.4.2 1 .2.8 0 1.3-.4.5-.3.6-1.1h1.2q-.2 1.3-1.1 1.9zm-.2-4.7q-.2-.4-.5-.6l-.6-.5-.8-.1-.9.1-.6.5-.4.6-.2.8h4.1l-.1-.8zM253.9 16.3v1h-1.4v4.9l.2.2.2.1h1v1H252.2l-.5-.3q-.2-.1-.3-.4l-.1-.8v-4.7h-1.2v-1h1.2v-2.2h1.2v2.2zM259.6 22v1.5H258V22zM269.1 23.5v-1.1h-.1q-.3.7-.9 1-.6.3-1.4.3-.7 0-1.2-.2l-.8-.5q-.3-.4-.4-.9l-.1-1v-4.8h1.2v4.9q0 .7.4 1.1.4.4 1.1.4.5 0 .9-.2l.7-.5.4-.7.1-.9v-4.1h1.2v7.2zM280.1 23.7q-.5 0-.8-.3-.3-.2-.3-.8-.4.6-1.1.8-.6.3-1.4.3l-.9-.1q-.5-.1-.8-.4-.3-.2-.5-.6-.2-.4-.2-.9 0-.6.2-1t.6-.7l.8-.3.9-.3.9-.1.8-.1.5-.3q.2-.2.2-.5 0-.4-.2-.6l-.3-.4-.5-.2h-.6q-.8 0-1.3.3t-.5 1.1h-1.2q0-.7.3-1.2.2-.4.6-.7l1-.4 1.2-.2.9.1.9.3q.4.2.6.6.3.4.3 1v4.4q.1.2.3.2l.4-.1v.9q-.3.2-.8.2zm-1.7-3.7-.8.2-.8.1q-.4 0-.7.2-.3.1-.5.4-.2.2-.2.7l.1.5.3.3.4.2.6.1q.6 0 1-.2l.7-.4.4-.5.1-.6v-1.2q-.2.2-.6.2z" class="s1"/></g></svg>